<svg width="22" height="21" viewBox="0 0 22 21" fill="none" xmlns="http://www.w3.org/2000/svg">
<path fill-rule="evenodd" clip-rule="evenodd" d="M0 10.5C0 4.70085 4.9247 0 11 0C17.0753 0 22 4.70085 22 10.5C22 16.2991 17.0753 21 11 21C4.9247 21 0 16.2991 0 10.5ZM11 2.1C8.66609 2.1 6.42778 2.985 4.77746 4.5603C3.12714 6.13561 2.2 8.27218 2.2 10.5C2.2 12.7278 3.12714 14.8644 4.77746 16.4397C6.42778 18.015 8.66609 18.9 11 18.9C13.3339 18.9 15.5722 18.015 17.2225 16.4397C18.8729 14.8644 19.8 12.7278 19.8 10.5C19.8 8.27218 18.8729 6.13561 17.2225 4.5603C15.5722 2.985 13.3339 2.1 11 2.1Z" fill="#666666"/>
<path fill-rule="evenodd" clip-rule="evenodd" d="M12.1 5.25C12.1 4.97152 11.9841 4.70445 11.7778 4.50754C11.5715 4.31062 11.2917 4.2 11 4.2C10.7083 4.2 10.4285 4.31062 10.2222 4.50754C10.0159 4.70445 9.89999 4.97152 9.89999 5.25V9.45H5.49999C5.20826 9.45 4.92847 9.56062 4.72218 9.75754C4.51589 9.95445 4.39999 10.2215 4.39999 10.5C4.39999 10.7785 4.51589 11.0455 4.72218 11.2425C4.92847 11.4394 5.20826 11.55 5.49999 11.55H9.89999V15.75C9.89999 16.0285 10.0159 16.2955 10.2222 16.4925C10.4285 16.6894 10.7083 16.8 11 16.8C11.2917 16.8 11.5715 16.6894 11.7778 16.4925C11.9841 16.2955 12.1 16.0285 12.1 15.75V11.55H16.5C16.7917 11.55 17.0715 11.4394 17.2778 11.2425C17.4841 11.0455 17.6 10.7785 17.6 10.5C17.6 10.2215 17.4841 9.95445 17.2778 9.75754C17.0715 9.56062 16.7917 9.45 16.5 9.45H12.1V5.25Z" fill="#666666"/>
</svg>
