<svg width="22" height="21" viewBox="0 0 22 21" fill="none" xmlns="http://www.w3.org/2000/svg">
<path d="M11 0C12.4445 0 13.8749 0.271591 15.2095 0.799265C16.5441 1.32694 17.7567 2.10036 18.7782 3.07538C19.7996 4.05039 20.6099 5.2079 21.1627 6.48182C21.7155 7.75574 22 9.12112 22 10.5C22 13.2848 20.8411 15.9555 18.7782 17.9246C16.7153 19.8938 13.9174 21 11 21C9.55546 21 8.12506 20.7284 6.79048 20.2007C5.4559 19.6731 4.24327 18.8996 3.22183 17.9246C1.15893 15.9555 0 13.2848 0 10.5C0 7.71523 1.15893 5.04451 3.22183 3.07538C5.28473 1.10625 8.08262 0 11 0ZM11 2.1C8.66609 2.1 6.42778 2.985 4.77746 4.5603C3.12714 6.13561 2.2 8.27218 2.2 10.5C2.2 12.7278 3.12714 14.8644 4.77746 16.4397C6.42778 18.015 8.66609 18.9 11 18.9C13.3339 18.9 15.5722 18.015 17.2225 16.4397C18.8729 14.8644 19.8 12.7278 19.8 10.5C19.8 8.27218 18.8729 6.13561 17.2225 4.5603C15.5722 2.985 13.3339 2.1 11 2.1ZM15.4 8.4V15.75C15.4 16.0285 15.2841 16.2955 15.0778 16.4925C14.8715 16.6894 14.5917 16.8 14.3 16.8H7.7C7.40826 16.8 7.12847 16.6894 6.92218 16.4925C6.71589 16.2955 6.6 16.0285 6.6 15.75V8.4H15.4ZM12.65 4.2L13.75 5.25H16.5V7.35H5.5V5.25H8.25L9.35 4.2H12.65Z" fill="#666666"/>
</svg>
