<svg width="20" height="20" viewBox="0 0 20 20" fill="none" xmlns="http://www.w3.org/2000/svg">
<path d="M16.6 17.45H19V19.45H13V13.45H15V16.18C16.83 14.71 18 12.47 18 9.95C18 5.88 14.94 2.51 11 2.02V0C16.05 0.5 20 4.76 20 9.95C20 12.94 18.68 15.62 16.6 17.45ZM2 9.95C2 7.43 3.17 5.18 5 3.72V6.45H7V0.45H1V2.45H3.4C2.3316 3.38569 1.47553 4.53892 0.889148 5.83241C0.302763 7.12591 -0.000391059 8.5298 3.78591e-07 9.95C3.78591e-07 15.14 3.95 19.4 9 19.9V17.88C5.06 17.39 2 14.02 2 9.95ZM14.24 6.06L8.58 11.72L5.75 8.89L4.34 10.3L8.58 14.54L15.65 7.47L14.24 6.06Z" fill="#666666"/>
</svg>
