<svg width="24" height="24" viewBox="0 0 24 24" fill="none" xmlns="http://www.w3.org/2000/svg">
<path opacity="0.3" d="M22 12C22 17.523 17.523 22 12 22C6.477 22 2 17.523 2 12C2 6.477 6.477 2 12 2C17.523 2 22 6.477 22 12Z" fill="black"/>
<path d="M12 7.75001C11.379 7.75001 10.875 8.25401 10.875 8.87501C10.875 9.07392 10.796 9.26469 10.6553 9.40534C10.5147 9.54599 10.3239 9.62501 10.125 9.62501C9.92609 9.62501 9.73532 9.54599 9.59467 9.40534C9.45402 9.26469 9.375 9.07392 9.375 8.87501C9.37501 8.44495 9.48069 8.02147 9.68274 7.64183C9.88479 7.26218 10.177 6.938 10.5337 6.69778C10.8905 6.45755 11.3007 6.30865 11.7285 6.26417C12.1562 6.21969 12.5884 6.28099 12.9869 6.44267C13.3854 6.60436 13.7381 6.86148 14.0139 7.19143C14.2898 7.52137 14.4803 7.91404 14.5688 8.3349C14.6573 8.75576 14.6411 9.19191 14.5215 9.60502C14.4019 10.0181 14.1826 10.3955 13.883 10.704C13.791 10.799 13.703 10.887 13.619 10.971C13.4159 11.1645 13.2252 11.3705 13.048 11.588C12.828 11.87 12.75 12.077 12.75 12.25V13C12.75 13.1989 12.671 13.3897 12.5303 13.5303C12.3897 13.671 12.1989 13.75 12 13.75C11.8011 13.75 11.6103 13.671 11.4697 13.5303C11.329 13.3897 11.25 13.1989 11.25 13V12.25C11.25 11.595 11.555 11.064 11.864 10.667C12.093 10.373 12.38 10.087 12.614 9.85301C12.684 9.78301 12.75 9.71801 12.807 9.65901C12.9611 9.50041 13.0651 9.29991 13.1059 9.08256C13.1467 8.86521 13.1225 8.64066 13.0364 8.43696C12.9503 8.23327 12.8061 8.05948 12.6217 7.9373C12.4374 7.81512 12.2211 7.74997 12 7.75001ZM12 17C12.2652 17 12.5196 16.8947 12.7071 16.7071C12.8946 16.5196 13 16.2652 13 16C13 15.7348 12.8946 15.4804 12.7071 15.2929C12.5196 15.1054 12.2652 15 12 15C11.7348 15 11.4804 15.1054 11.2929 15.2929C11.1054 15.4804 11 15.7348 11 16C11 16.2652 11.1054 16.5196 11.2929 16.7071C11.4804 16.8947 11.7348 17 12 17Z" fill="black"/>
</svg>
